<svg xmlns="http://www.w3.org/2000/svg" width="180" height="168" viewBox="0 0 180 168"><defs><style>.a{fill:#00b592;font-size:48px;font-family:OpenSans-Bold, Open Sans;font-weight:700;}.b{fill:#7d8597;font-size:24px;font-family:ProductSans-Regular, Product Sans;}.c{fill:#04957c;}.d{fill:#fdc9a6;}.e{fill:#683b0d;}.f{fill:#2cbff4;}.g{fill:#cbcbcb;}.h{fill:#d32b39;}.i{fill:#fbb540;}.j{fill:#a8a8a8;}.k{fill:#656666;}</style></defs><g transform="translate(-721 -4599)"><text class="a" transform="translate(811 4726)"><tspan x="-89.156" y="0">99,854+</tspan></text><text class="b" transform="translate(811 4761)"><tspan x="-71.484" y="0">Enroll Student</tspan></text><g transform="translate(302 1229)"><g transform="translate(469 3370)"><rect class="c" width="80" height="56.875" rx="6"/><path class="d" d="M235.157,109.262a4.09,4.09,0,0,0-4.09,4.09v2.726a4.079,4.079,0,0,0,1.363,3.047v5.11h5.453v-5.11a4.078,4.078,0,0,0,1.363-3.047v-2.726a4.09,4.09,0,0,0-4.09-4.09Z" transform="translate(-195.316 -98.948)"/><path class="e" d="M222.159,93.2l-.022,2.215,2.457-2.215h5.744l1.784-1.784a3.759,3.759,0,0,0-4.744-5.786l-1.131.754h-2.795a3.124,3.124,0,0,0-2.6,4.857Z" transform="translate(-186.408 -78.819)"/><path class="f" d="M187.444,194.726l-2.726,8.179-4.436-6.654a5.794,5.794,0,0,0-2.726-2.188l-5.265-2.041L167,192l-7.092,2.026a5.794,5.794,0,0,0-3.59,2.98l-3.773,7.547a5.112,5.112,0,0,0-.54,2.286v.256a5.112,5.112,0,0,0,3.872,4.959l7.034,1.758v4.09h13.632V204.269l3.756,3.756a5.794,5.794,0,0,0,4.1,1.7h.358a5.794,5.794,0,0,0,5.445-3.814l4.066-11.182Zm-24.538,13.632L158.816,207l4.09-6.816Z" transform="translate(-129.722 -167.654)"/><path class="g" d="M368,136v2.726a2.726,2.726,0,0,0,5.453,0V136Z" transform="translate(-308.915 -121.158)"/><path class="h" d="M216,250.906V240l6.816,1.363L229.632,240v10.906l-6.816,1.363Z" transform="translate(-182.816 -207.476)"/><path class="d" d="M361.363,174.816,360,170.726,362.726,168h2.726l1.363,2.726-1.363,4.09Z" transform="translate(-302.278 -147.716)"/><path class="i" d="M356.459,89.543l-1.6-2.4A4.6,4.6,0,0,1,358.683,80h1a4.6,4.6,0,0,1,3.823,7.144l-1.6,2.4Z" transform="translate(-297.374 -74.673)"/><path class="g" d="M146.386,440h33.4a2.386,2.386,0,0,1,2.386,2.386v3.067H144v-3.067A2.386,2.386,0,0,1,146.386,440Z" transform="translate(-123.085 -373.453)"/><path class="j" d="M188.628,384h-6.816a5.453,5.453,0,1,1-10.906,0H164.09L160,393.543h32.717Z" transform="translate(-136.359 -326.995)"/><path class="g" d="M104,344H24v2.726a4.114,4.114,0,0,0,4.138,4.09H99.862a4.114,4.114,0,0,0,4.138-4.09Z" transform="translate(-24 -293.783)"/><path class="d" d="M216,288h5.453v5.453H216Z" transform="translate(-182.816 -247.305)"/><g transform="translate(26.562 57.027)"><path class="k" d="M185.854,386.726H177.14L178.309,384h6.816A5.433,5.433,0,0,0,185.854,386.726Z" transform="translate(-177.14 -384)"/><path class="k" d="M292.434,386.726H283.72a5.434,5.434,0,0,0,.729-2.726h6.816Z" transform="translate(-265.558 -384)"/></g></g></g></g></svg>