<svg xmlns="http://www.w3.org/2000/svg" width="176" height="162" viewBox="0 0 176 162"><defs><style>.a,.c{fill:#c4a2fc;}.a{font-size:49px;font-family:OpenSans-Bold, Open Sans;font-weight:700;}.b{fill:#7d8597;font-size:24px;font-family:ProductSans-Regular, Product Sans;}.d{fill:#151a6a;}</style></defs><g transform="translate(-1023.428 -4608)"><text class="a" transform="translate(1112.428 4729)"><tspan x="-55.938" y="0">650+</tspan></text><text class="b" transform="translate(1111.428 4764)"><tspan x="-87.864" y="0">Expert Instructor</tspan></text><g transform="translate(1074.258 4608)"><g transform="translate(15.11 28.492)"><path class="c" d="M39.553,36.829c0-4.247.881-8.658,2.57-11.329H35.776C34.236,25.5,32,29.913,32,36.829s2.236,11.329,3.776,11.329h6.347C40.434,45.49,39.553,41.079,39.553,36.829Z" transform="translate(-8.083 -25.5)"/><path class="c" d="M56.364,36.829c0-4.247.881-8.658,2.57-11.329H43.776C42.236,25.5,40,29.913,40,36.829s2.236,11.329,3.776,11.329H58.935C57.246,45.49,56.364,41.079,56.364,36.829Z" transform="translate(-6.012 -25.5)"/><path class="c" d="M34.4,36.829c0-4.247.881-8.658,2.57-11.329H19.294C15.705,25.5,13,30.372,13,36.829s2.705,11.329,6.294,11.329H36.97C35.281,45.49,34.4,41.079,34.4,36.829Z" transform="translate(-13 -25.5)"/><path class="c" d="M58.776,25.5C57.236,25.5,55,29.913,55,36.829s2.236,11.329,3.776,11.329c3.589,0,6.294-4.87,6.294-11.329S62.365,25.5,58.776,25.5Z" transform="translate(-2.13 -25.5)"/><path class="c" d="M52.461,45.5H38.836l8.02,19.364a1.259,1.259,0,0,0,2.326,0l2.243-5.413,5.413,2.243a1.259,1.259,0,0,0,1.644-1.645Z" transform="translate(-6.314 -20.324)"/><path class="c" d="M27.6,45.5H41.223L33.2,64.865a1.259,1.259,0,0,1-2.326,0l-2.243-5.413L23.221,61.7a1.259,1.259,0,0,1-1.644-1.645Z" transform="translate(-10.805 -20.324)"/></g><path class="d" d="M63.08,12.635,32.869,2.564a1.259,1.259,0,0,0-.8,0L1.862,12.635a1.259,1.259,0,0,0,0,2.392l1.657.55V39.746L1.37,41.892a1.259,1.259,0,1,0,1.78,1.78l1.628-1.628,1.628,1.628a1.259,1.259,0,1,0,1.78-1.78L6.036,39.743V16.415l9.389,3.129L13.6,35.082a1.259,1.259,0,0,0,.755,1.305L32.067,43.94a1.259,1.259,0,0,0,.992,0l17.534-7.553a1.259,1.259,0,0,0,.755-1.3l-1.832-15.54,13.564-4.52a1.259,1.259,0,0,0,0-2.389ZM32.558,41.412,16.209,34.441l1.66-14.084,14.208,4.737a1.259,1.259,0,0,0,.8,0l14.2-4.737L48.73,34.444Zm-.087-18.839L6.24,13.829,32.471,5.086,58.7,13.829Z" transform="translate(-0.996 -2.5)"/></g></g></svg>