<svg xmlns="http://www.w3.org/2000/svg" width="150" height="168" viewBox="0 0 150 168"><defs><style>.a{fill:#2680eb;font-size:48px;font-family:OpenSans-Bold, Open Sans;font-weight:700;}.b{fill:#7d8597;font-size:24px;font-family:ProductSans-Regular, Product Sans;}.c{fill:#4380a0;}.d{fill:#3b7191;}.e{fill:#bbf7ff;}.f{fill:#8bf0ff;}.g{fill:#a9dbf5;}.h{fill:#88c3e0;}.i{fill:#f75632;}.j{fill:#e33629;}.k{fill:#f3f3f3;}.l{fill:#e4e4e4;}</style></defs><g transform="translate(-434 -4554)"><text class="a" transform="translate(509 4681)"><tspan x="-68.496" y="0">2400+</tspan></text><text class="b" transform="translate(509 4716)"><tspan x="-74.328" y="0">Online Course</tspan></text><g transform="translate(467 4516.001)"><path class="c" d="M104.364,164.879l-66.428,0a3.425,3.425,0,0,1-3.425-3.425V116.67a3.425,3.425,0,0,1,3.425-3.425l66.428,0a3.425,3.425,0,0,1,3.425,3.425v44.785A3.425,3.425,0,0,1,104.364,164.879Z" transform="translate(-28.801 -62.922)"/><path class="d" d="M434.5,161.438a3.426,3.426,0,0,1-3.408,3.443H425.98a3.426,3.426,0,0,0,3.408-3.443l0-44.751a3.425,3.425,0,0,0-3.4-3.442h5.1a3.425,3.425,0,0,1,3.408,3.442Z" transform="translate(-355.512 -62.923)"/><path class="e" d="M128.471,184.424a.662.662,0,0,1-.662.662h-4.451l-57.278,0a.662.662,0,0,1-.662-.662l0-39.6a.662.662,0,0,1,.662-.662l57.278,0h4.451a.662.662,0,0,1,.662.662Z" transform="translate(-54.595 -88.675)"/><path class="f" d="M420.12,185.085H415.67l0-40.92h4.451a.662.662,0,0,1,.662.662l0,39.6A.662.662,0,0,1,420.12,185.085Z" transform="translate(-346.906 -88.674)"/><path class="g" d="M82.311,430.989H2.386A2.386,2.386,0,0,1,0,428.6V424.85a2.386,2.386,0,0,1,2.386-2.386H82.311A2.386,2.386,0,0,1,84.7,424.85V428.6A2.386,2.386,0,0,1,82.311,430.989Z" transform="translate(0 -320.99)"/><path class="h" d="M471.784,422.463h-5.112a2.387,2.387,0,0,1,2.386,2.387V428.6a2.386,2.386,0,0,1-2.386,2.387h5.112a2.387,2.387,0,0,0,2.386-2.387V424.85A2.386,2.386,0,0,0,471.784,422.463Z" transform="translate(-389.473 -320.989)"/><path class="i" d="M129.614,121.885h-24.1a.955.955,0,0,1-.955-.955V91.251a.955.955,0,0,1,.955-.955h24.1Z" transform="translate(-87.266 -43.646)"/><path class="j" d="M280.1,121.885H256V90.3h24.1a.955.955,0,0,1,.955.955V120.93A.955.955,0,0,1,280.1,121.885Z" transform="translate(-213.651 -43.646)"/><path class="k" d="M151.55,78.239,131.49,71.3a.955.955,0,0,1-.643-.9V38.955a.955.955,0,0,1,1.267-.9l19.436,6.725Z" transform="translate(-109.202 0)"/><path class="l" d="M256,78.239,276.061,71.3a.955.955,0,0,0,.643-.9V38.955a.955.955,0,0,0-1.267-.9L256,44.778Z" transform="translate(-213.651 0)"/><path class="h" d="M224.443,426.555H213.616a1.914,1.914,0,0,1-1.914-1.914v-2.178h14.656v2.178A1.914,1.914,0,0,1,224.443,426.555Z" transform="translate(-176.681 -320.989)"/><g transform="translate(24.32 83.115)"><path class="c" d="M181.833,311.257H148.257a1.241,1.241,0,0,0,0,2.483h33.576a1.241,1.241,0,0,0,0-2.483Z" transform="translate(-147.016 -311.257)"/><path class="c" d="M170.032,344.049H148.257a1.241,1.241,0,0,0,0,2.483h21.775a1.241,1.241,0,0,0,0-2.483Z" transform="translate(-147.016 -338.624)"/></g></g></g></svg>