<svg xmlns="http://www.w3.org/2000/svg" width="262.915" height="45.335" viewBox="0 0 262.915 45.335"><defs><style>.a{fill:#03ecc9;}.b{fill:#fff;}</style></defs><g transform="translate(-1808 -7553.438)"><path class="a" d="M84.668,121.773A22.668,22.668,0,1,0,62,99.105,22.667,22.667,0,0,0,84.668,121.773Z" transform="translate(1746 7477)"/><path class="b" d="M87.193,112.832A10.937,10.937,0,1,0,76.526,101.9,10.8,10.8,0,0,0,87.193,112.832Z" transform="translate(1743.208 7474.208)"/><path class="b" d="M103.23,93.656A2.679,2.679,0,1,0,100.3,90.99,2.81,2.81,0,0,0,103.23,93.656Z" transform="translate(1738.638 7474.715)"/><path class="b" d="M146.711,88.643h-7.383l-9.476,26.17h6.666l1.57-4.628h9.779l1.57,4.628h6.75Zm-6.942,16.611,3.2-9.587,3.25,9.587Z" transform="translate(1732.956 7474.654)"/><path class="b" d="M178.909,109.149c-3.912,0-6.612-2.92-6.612-7.52s2.7-7.521,6.612-7.521a5.773,5.773,0,0,1,5.481,3.361h7.025c-1.515-5.7-6.2-9.2-12.452-9.2-7.713,0-13.167,5.509-13.167,13.361,0,7.823,5.454,13.3,13.167,13.3,6.225,0,10.936-3.471,12.424-9.145h-7.025A5.736,5.736,0,0,1,178.909,109.149Z" transform="translate(1726.046 7474.726)"/><path class="b" d="M229.009,101.553a13.429,13.429,0,1,0-13.388,13.416,14.354,14.354,0,0,0,2.92-.3l1.019,1.378H227l-3.141-3.746A13.312,13.312,0,0,0,229.009,101.553Zm-13.388,7.6c-4.242,0-6.942-3.031-6.942-7.6,0-4.655,2.672-7.6,6.942-7.6,4.187,0,6.914,2.948,6.914,7.6C222.508,106.126,219.781,109.156,215.621,109.156Z" transform="translate(1719.058 7474.746)"/><path class="b" d="M246.912,95.658c0-1.653,1.157-2.424,2.7-2.4a2.841,2.841,0,0,1,3.03,2.727h6.887c-.275-4.986-4.1-7.823-9.807-7.823-5.481,0-9.558,2.755-9.558,7.713-.083,9.284,13.029,6.666,13.029,11.515,0,1.515-1.184,2.452-3.057,2.452a3,3,0,0,1-3.25-2.975h-6.777c.193,5.289,4.6,8.1,10.221,8.1,6.116,0,9.558-3.664,9.558-8.045C259.858,98.165,246.912,100.2,246.912,95.658Z" transform="translate(1711.761 7474.746)"/><path class="b" d="M369.8,95.658c0-1.653,1.158-2.424,2.7-2.4a2.842,2.842,0,0,1,3.03,2.727h6.887c-.275-4.986-4.105-7.823-9.807-7.823-5.482,0-9.559,2.755-9.559,7.713-.082,9.284,13.03,6.666,13.03,11.515,0,1.515-1.184,2.452-3.057,2.452a3.005,3.005,0,0,1-3.251-2.975H363c.193,5.289,4.6,8.1,10.22,8.1,6.116,0,9.559-3.664,9.559-8.045C382.751,98.165,369.8,100.2,369.8,95.658Z" transform="translate(1688.137 7474.746)"/><path class="b" d="M283.006,101.446l10.137-12.837h-7.493L276.918,100.1V88.636h-6.391v26.17h6.391v-11.57l8.815,11.57h7.8Z" transform="translate(1705.913 7474.66)"/><path class="b" d="M303.914,88.643v26.17h6.364V88.643Z" transform="translate(1699.495 7474.654)"/><path class="b" d="M325.045,109.881V88.643h-6.364v26.17h14.738v-4.931Z" transform="translate(1696.656 7474.654)"/><path class="b" d="M348.235,109.881V88.643h-6.364v26.17h14.738v-4.931Z" transform="translate(1692.198 7474.654)"/></g></svg>